<svg width="21" height="23" viewBox="0 0 21 23" fill="none" xmlns="http://www.w3.org/2000/svg">
<path d="M10.4165 8.3329H10.4269M18.6196 5.48915C19.3488 5.90373 19.7967 6.67977 19.7915 7.51831V15.1058C19.7915 15.9485 19.33 16.7256 18.5853 17.135L11.554 21.5829C11.2054 21.7742 10.8142 21.8745 10.4165 21.8745C10.0189 21.8745 9.62762 21.7742 9.279 21.5829L2.24775 17.135C1.88371 16.9354 1.5798 16.6419 1.36766 16.285C1.15551 15.9282 1.04289 15.521 1.0415 15.1058V7.51727C1.0415 6.67456 1.50296 5.89852 2.24775 5.48915L9.279 1.34331C9.6379 1.14543 10.0411 1.04166 10.4509 1.04166C10.8607 1.04166 11.2639 1.14543 11.6228 1.34331L18.654 5.48915H18.6196Z" stroke="#343338" stroke-width="2.08333" stroke-linecap="round" stroke-linejoin="round"/>
<path d="M9.375 11.4579H10.4167V15.6246H11.4583" stroke="#343338" stroke-width="2.08333" stroke-linecap="round" stroke-linejoin="round"/>
</svg>
